<svg xmlns="http://www.w3.org/2000/svg" width="128" height="128" viewBox="0 0 128 128" xmlns:xlink="http://www.w3.org/1999/xlink"><defs><path id="a" d="M0 17h47l-2.371 23.612C44.496 41.931 43.314 43 41.993 43H5.007c-1.323 0-2.503-1.068-2.636-2.388L0 17z"/><path id="b" d="M20.606 13.253H2.384a2.373 2.373 0 1 0 0 4.747h43.232a2.373 2.373 0 1 0 0-4.747H27.394L14.684.683a2.43 2.43 0 0 0-3.387.008 2.344 2.344 0 0 0-.008 3.349l9.317 9.213z"/></defs><g fill="none" fill-rule="evenodd"><path d="M0 0h128v128H0z"/><g transform="translate(31 6)"><path stroke="#8597AB" stroke-width="2.4" d="M49.5 18.603v33.794" stroke-linecap="square"/><path fill="#677685" d="M49.5 34C57.508 34 64 22.815 64 14.698 64 6.58 57.508 0 49.5 0S35 6.58 35 14.698C35 22.815 41.492 34 49.5 34z"/><g transform="translate(0 39)"><ellipse cx="34.5" cy="71" fill="#E1E7ED" rx="22.5" ry="3"/><g transform="rotate(-16 48.346 3.654)"><use fill="#E1E7ED" xlink:href="#a"/><path stroke="#677685" stroke-width="2.4" d="M1.327 18.2l2.238 22.292c.071.707.735 1.308 1.442 1.308h36.986c.705 0 1.37-.603 1.442-1.308L45.673 18.2H1.327z"/><use fill="#E1E7ED" xlink:href="#b"/><path stroke="#677685" stroke-width="2.4" d="M17.686 12.053l-7.24-7.16a3.544 3.544 0 0 1 .007-5.055c1.4-1.384 3.685-1.381 5.074-.008l12.36 12.223h17.729a3.573 3.573 0 1 1 0 7.147H2.384a3.573 3.573 0 1 1 0-7.147h15.302z"/></g><path fill="#677685" d="M27.506 33.002c.137.513.098.948-.118 1.305-.215.357-.542.594-.98.712-.43.115-.824.07-1.182-.133s-.605-.561-.743-1.074c-.131-.49-.096-.917.107-1.278.202-.362.522-.601.96-.719.437-.117.839-.075 1.204.126.366.202.616.555.752 1.06zm9.61-2.575c.137.513.098.948-.118 1.305-.215.357-.542.594-.98.712-.43.115-.824.07-1.182-.133-.357-.203-.605-.561-.743-1.074-.13-.49-.095-.917.107-1.279.202-.361.522-.6.96-.718.438-.117.84-.075 1.205.126.365.202.615.555.75 1.06zm-4.594 6.084a17.836 17.836 0 0 1 5.152-.629c1.691.049 3.275.36 4.751.935 1.477.575 2.6 1.302 3.368 2.18l-1.461.973c-1.093-.847-2.556-1.38-4.39-1.596-1.832-.216-3.825-.069-5.977.443l-.976.25c-2.287.612-4.24 1.481-5.86 2.607-1.619 1.125-2.74 2.394-3.365 3.807l-1.673-.134c.227-1.144.84-2.338 1.837-3.58a14.127 14.127 0 0 1 3.647-3.185c1.434-.882 3.083-1.572 4.947-2.071z"/></g><circle cx="39" cy="17" r="1" fill="#FFF"/><path fill="#FFF" fill-rule="nonzero" d="M48 2.8c-4.055 0-10.2 6.085-10.2 10.2a1.2 1.2 0 1 0 2.4 0c0-2.784 5.065-7.8 7.8-7.8a1.2 1.2 0 1 0 0-2.4z"/></g></g></svg>